<?xml version="1.0" encoding="UTF-8"?>
<svg version="1.1" xmlns="http://www.w3.org/2000/svg" width="188" height="159">
<path d="M0 0 C62.04 0 124.08 0 188 0 C188 52.47 188 104.94 188 159 C125.96 159 63.92 159 0 159 C0 106.53 0 54.06 0 0 Z " fill="#060606" transform="translate(0,0)"/>
<path d="M0 0 C0.66 0 1.32 0 2 0 C3.37117757 2.01440732 4.6004114 4.01595507 5.8125 6.125 C6.20501953 6.79313721 6.59753906 7.46127441 7.00195312 8.1496582 C7.87363009 9.634296 8.74210642 11.12081616 9.60791016 12.60888672 C12.05483495 16.8118298 14.52857724 20.99893225 17 25.1875 C17.53181885 26.09177734 18.0636377 26.99605469 18.61157227 27.92773438 C21.88640114 33.48018941 25.21011932 38.99987189 28.578125 44.49609375 C28.96601196 45.13014633 29.35389893 45.76419891 29.75354004 46.41746521 C31.67161889 49.55216992 33.59501462 52.68338561 35.52734375 55.80932617 C36.23198919 56.95868777 36.93642636 58.1081771 37.640625 59.2578125 C38.26485352 60.2698877 38.88908203 61.28196289 39.53222656 62.32470703 C40.79574162 64.6277007 41.54678009 66.43556882 42 69 C19.3542978 71.9635946 19.3542978 71.9635946 12.89941406 67.5703125 C9.30489302 63.35558652 7.45418474 58.21045631 5.40673828 53.12158203 C3.79246115 49.53946689 1.84643994 46.23305884 -0.22265625 42.90234375 C-0.59541183 42.29986313 -0.96816742 41.69738251 -1.35221863 41.0766449 C-2.85308954 38.65933284 -4.36090391 36.24640333 -5.87094116 33.83480835 C-6.92312819 32.14090529 -7.95418367 30.4339321 -8.984375 28.7265625 C-9.58991211 27.74252441 -10.19544922 26.75848633 -10.81933594 25.74462891 C-12.2031085 22.52784415 -12.12845335 21.27038805 -11 18 C-9.984375 15.88769531 -9.984375 15.88769531 -8.75 13.828125 C-8.3065625 13.08175781 -7.863125 12.33539063 -7.40625 11.56640625 C-6.9421875 10.80199219 -6.478125 10.03757812 -6 9.25 C-5.5359375 8.47011719 -5.071875 7.69023437 -4.59375 6.88671875 C-1.17911255 1.17911255 -1.17911255 1.17911255 0 0 Z " fill="#F8F8F8" transform="translate(101,22)"/>
<path d="M0 0 C7.68353533 -0.3022237 15.36645057 -0.53268413 23.05458832 -0.67355824 C26.62577745 -0.74120953 30.19288197 -0.83278024 33.76171875 -0.98071289 C56.84068733 -1.91305893 56.84068733 -1.91305893 62.05175781 1.24240112 C65.41069425 4.6238543 66.65477691 8.46427045 68 13 C69.4549757 15.52316792 69.4549757 15.52316792 71 17.6875 C73 21 73 21 73 23 C51.22 23 29.44 23 7 23 C-0.08456118 8.83087764 -0.08456118 8.83087764 0 0 Z " fill="#F7F7F7" transform="translate(91,103)"/>
<path d="M0 0 C1.07354736 0.02094727 2.14709473 0.04189453 3.25317383 0.06347656 C4.41655273 0.07636719 5.57993164 0.08925781 6.77856445 0.10253906 C7.99350586 0.13605469 9.20844727 0.16957031 10.46020508 0.20410156 C11.68674805 0.22214844 12.91329102 0.24019531 14.17700195 0.25878906 C17.20968266 0.30599032 20.24080595 0.37182479 23.27270508 0.45410156 C23.27270508 1.44410156 23.27270508 2.43410156 23.27270508 3.45410156 C22.61270508 3.45410156 21.95270508 3.45410156 21.27270508 3.45410156 C20.86846313 4.77643799 20.86846313 4.77643799 20.45605469 6.12548828 C19.3391458 9.26721218 18.04078506 11.85476314 16.33911133 14.71191406 C15.77256836 15.66710937 15.20602539 16.62230469 14.62231445 17.60644531 C13.73769531 19.07791016 13.73769531 19.07791016 12.83520508 20.57910156 C12.24932617 21.5678125 11.66344727 22.55652344 11.05981445 23.57519531 C7.88522499 28.90101056 7.88522499 28.90101056 6.27270508 31.45410156 C5.83780762 32.20900879 5.40291016 32.96391602 4.95483398 33.74169922 C3.27270508 35.45410156 3.27270508 35.45410156 0.54541016 35.90820312 C-0.52813721 35.88725586 -1.60168457 35.86630859 -2.70776367 35.84472656 C-3.87114258 35.83183594 -5.03452148 35.81894531 -6.2331543 35.80566406 C-7.4480957 35.77214844 -8.66303711 35.73863281 -9.91479492 35.70410156 C-11.14133789 35.68605469 -12.36788086 35.66800781 -13.6315918 35.64941406 C-16.66427251 35.60221281 -19.69539579 35.53637834 -22.72729492 35.45410156 C-21.27243091 31.54131388 -19.44176145 28.03255097 -17.35620117 24.41894531 C-16.69942383 23.28005859 -16.04264648 22.14117187 -15.3659668 20.96777344 C-14.8544104 20.08690063 -14.8544104 20.08690063 -14.33251953 19.18823242 C-13.2923131 17.39594043 -12.25847363 15.60008825 -11.2253418 13.80371094 C-7.43628294 7.2535749 -7.43628294 7.2535749 -5.72729492 4.45410156 C-5.06141357 3.29358276 -5.06141357 3.29358276 -4.38208008 2.10961914 C-2.72729492 0.45410156 -2.72729492 0.45410156 0 0 Z " fill="#F5F5F5" transform="translate(66.727294921875,90.5458984375)"/>
<path d="M0 0 C0.66 0.99 1.32 1.98 2 3 C5.06556598 3.73343428 5.06556598 3.73343428 8 4 C8 4.33 8 4.66 8 5 C4.7 5 1.4 5 -2 5 C-1.34 3.35 -0.68 1.7 0 0 Z " fill="#E3E3E3" transform="translate(46,121)"/>
</svg>
